<mxfile host="app.diagrams.net" modified="2021-01-06T21:26:16.922Z" agent="5.0 (Macintosh; Intel Mac OS X 11_0_1) AppleWebKit/537.36 (KHTML, like Gecko) Chrome/87.0.4280.101 Safari/537.36" etag="CyN7kdngXr8QiNcpXRuw" version="14.1.1" type="github">
  <diagram id="w1IGCY3nbmWGk3qCiq3O" name="Page-1">
    <mxGraphModel dx="698" dy="458" grid="1" gridSize="10" guides="1" tooltips="1" connect="1" arrows="1" fold="1" page="1" pageScale="1" pageWidth="827" pageHeight="1169" math="0" shadow="0">
      <root>
        <mxCell id="0" />
        <mxCell id="1" parent="0" />
        <mxCell id="w2oGDDwC-yfaYsdd0_vw-14" style="edgeStyle=orthogonalEdgeStyle;rounded=0;orthogonalLoop=1;jettySize=auto;html=1;exitX=0.5;exitY=1;exitDx=0;exitDy=0;entryX=0.5;entryY=0;entryDx=0;entryDy=0;" edge="1" parent="1" source="w2oGDDwC-yfaYsdd0_vw-1" target="w2oGDDwC-yfaYsdd0_vw-8">
          <mxGeometry relative="1" as="geometry" />
        </mxCell>
        <mxCell id="w2oGDDwC-yfaYsdd0_vw-1" value="APP" style="rounded=0;whiteSpace=wrap;html=1;" vertex="1" parent="1">
          <mxGeometry x="240" y="40" width="120" height="60" as="geometry" />
        </mxCell>
        <mxCell id="w2oGDDwC-yfaYsdd0_vw-2" value="На точке входа мы проверяем авторизацию пользователя" style="text;html=1;strokeColor=none;fillColor=none;align=left;verticalAlign=middle;whiteSpace=wrap;rounded=0;" vertex="1" parent="1">
          <mxGeometry x="390" y="50" width="170" height="50" as="geometry" />
        </mxCell>
        <mxCell id="w2oGDDwC-yfaYsdd0_vw-3" value="/" style="text;html=1;strokeColor=none;fillColor=none;align=center;verticalAlign=middle;whiteSpace=wrap;rounded=0;" vertex="1" parent="1">
          <mxGeometry x="240" y="20" width="40" height="20" as="geometry" />
        </mxCell>
        <mxCell id="w2oGDDwC-yfaYsdd0_vw-12" style="edgeStyle=orthogonalEdgeStyle;rounded=0;orthogonalLoop=1;jettySize=auto;html=1;exitX=0;exitY=0.5;exitDx=0;exitDy=0;" edge="1" parent="1" source="w2oGDDwC-yfaYsdd0_vw-8" target="w2oGDDwC-yfaYsdd0_vw-10">
          <mxGeometry relative="1" as="geometry" />
        </mxCell>
        <mxCell id="w2oGDDwC-yfaYsdd0_vw-16" style="edgeStyle=orthogonalEdgeStyle;rounded=0;orthogonalLoop=1;jettySize=auto;html=1;exitX=1;exitY=0.5;exitDx=0;exitDy=0;entryX=0.5;entryY=0;entryDx=0;entryDy=0;" edge="1" parent="1" source="w2oGDDwC-yfaYsdd0_vw-8" target="w2oGDDwC-yfaYsdd0_vw-15">
          <mxGeometry relative="1" as="geometry" />
        </mxCell>
        <mxCell id="w2oGDDwC-yfaYsdd0_vw-8" value="&lt;div style=&quot;text-align: center&quot;&gt;&lt;span&gt;Пользователь авторизован?&lt;/span&gt;&lt;/div&gt;" style="rounded=1;whiteSpace=wrap;html=1;align=left;" vertex="1" parent="1">
          <mxGeometry x="240" y="140" width="120" height="60" as="geometry" />
        </mxCell>
        <mxCell id="w2oGDDwC-yfaYsdd0_vw-10" value="StuffLogin" style="rounded=0;whiteSpace=wrap;html=1;align=center;" vertex="1" parent="1">
          <mxGeometry x="80" y="240" width="120" height="60" as="geometry" />
        </mxCell>
        <mxCell id="w2oGDDwC-yfaYsdd0_vw-13" value="да" style="text;html=1;strokeColor=none;fillColor=none;align=center;verticalAlign=middle;whiteSpace=wrap;rounded=0;" vertex="1" parent="1">
          <mxGeometry x="180" y="150" width="40" height="20" as="geometry" />
        </mxCell>
        <mxCell id="w2oGDDwC-yfaYsdd0_vw-25" style="edgeStyle=orthogonalEdgeStyle;rounded=0;orthogonalLoop=1;jettySize=auto;html=1;exitX=1;exitY=0.5;exitDx=0;exitDy=0;" edge="1" parent="1" source="w2oGDDwC-yfaYsdd0_vw-15" target="w2oGDDwC-yfaYsdd0_vw-24">
          <mxGeometry relative="1" as="geometry" />
        </mxCell>
        <mxCell id="w2oGDDwC-yfaYsdd0_vw-15" value="Login" style="rounded=0;whiteSpace=wrap;html=1;align=center;" vertex="1" parent="1">
          <mxGeometry x="400" y="240" width="120" height="60" as="geometry" />
        </mxCell>
        <mxCell id="w2oGDDwC-yfaYsdd0_vw-17" value="нет" style="text;html=1;strokeColor=none;fillColor=none;align=center;verticalAlign=middle;whiteSpace=wrap;rounded=0;" vertex="1" parent="1">
          <mxGeometry x="380" y="150" width="40" height="20" as="geometry" />
        </mxCell>
        <mxCell id="w2oGDDwC-yfaYsdd0_vw-26" style="edgeStyle=orthogonalEdgeStyle;rounded=0;orthogonalLoop=1;jettySize=auto;html=1;exitX=1;exitY=0.5;exitDx=0;exitDy=0;" edge="1" parent="1" source="w2oGDDwC-yfaYsdd0_vw-24" target="w2oGDDwC-yfaYsdd0_vw-33">
          <mxGeometry relative="1" as="geometry">
            <mxPoint x="780" y="270" as="targetPoint" />
          </mxGeometry>
        </mxCell>
        <mxCell id="w2oGDDwC-yfaYsdd0_vw-27" style="edgeStyle=orthogonalEdgeStyle;rounded=0;orthogonalLoop=1;jettySize=auto;html=1;entryX=0.5;entryY=1;entryDx=0;entryDy=0;" edge="1" parent="1" source="w2oGDDwC-yfaYsdd0_vw-24" target="w2oGDDwC-yfaYsdd0_vw-30">
          <mxGeometry relative="1" as="geometry">
            <mxPoint x="635" y="210" as="targetPoint" />
          </mxGeometry>
        </mxCell>
        <mxCell id="w2oGDDwC-yfaYsdd0_vw-28" style="edgeStyle=orthogonalEdgeStyle;rounded=0;orthogonalLoop=1;jettySize=auto;html=1;exitX=0.5;exitY=1;exitDx=0;exitDy=0;" edge="1" parent="1" source="w2oGDDwC-yfaYsdd0_vw-24">
          <mxGeometry relative="1" as="geometry">
            <mxPoint x="635.2857142857142" y="370" as="targetPoint" />
          </mxGeometry>
        </mxCell>
        <mxCell id="w2oGDDwC-yfaYsdd0_vw-32" style="edgeStyle=orthogonalEdgeStyle;rounded=0;orthogonalLoop=1;jettySize=auto;html=1;exitX=0.5;exitY=1;exitDx=0;exitDy=0;" edge="1" parent="1" source="w2oGDDwC-yfaYsdd0_vw-24">
          <mxGeometry relative="1" as="geometry">
            <mxPoint x="635.1034482758621" y="320" as="targetPoint" />
          </mxGeometry>
        </mxCell>
        <mxCell id="w2oGDDwC-yfaYsdd0_vw-24" value="У пользователя есть три сценария" style="text;html=1;strokeColor=none;fillColor=none;align=center;verticalAlign=middle;whiteSpace=wrap;rounded=0;" vertex="1" parent="1">
          <mxGeometry x="550" y="245" width="170" height="50" as="geometry" />
        </mxCell>
        <mxCell id="w2oGDDwC-yfaYsdd0_vw-30" value="Войти" style="shape=parallelogram;perimeter=parallelogramPerimeter;whiteSpace=wrap;html=1;fixedSize=1;align=center;" vertex="1" parent="1">
          <mxGeometry x="575" y="160" width="120" height="60" as="geometry" />
        </mxCell>
        <mxCell id="w2oGDDwC-yfaYsdd0_vw-31" value="Восстановить пароль" style="shape=parallelogram;perimeter=parallelogramPerimeter;whiteSpace=wrap;html=1;fixedSize=1;align=center;" vertex="1" parent="1">
          <mxGeometry x="575" y="320" width="120" height="60" as="geometry" />
        </mxCell>
        <mxCell id="w2oGDDwC-yfaYsdd0_vw-33" value="Зарегистрироваться" style="shape=parallelogram;perimeter=parallelogramPerimeter;whiteSpace=wrap;html=1;fixedSize=1;align=center;" vertex="1" parent="1">
          <mxGeometry x="740" y="240" width="160" height="60" as="geometry" />
        </mxCell>
      </root>
    </mxGraphModel>
  </diagram>
</mxfile>
